HIERARCHY
ROOT reference
{
  OFFSET 0 0 0
  CHANNELS 6 Xposition Yposition Zposition Zrotation Xrotation Yrotation
  JOINT Hips
  {
    OFFSET 19.0575 92.4729 105.761
    CHANNELS 6 Xposition Yposition Zposition Zrotation Xrotation Yrotation
    JOINT Spine
    {
      OFFSET 0 8.25043 0
      CHANNELS 6 Xposition Yposition Zposition Zrotation Xrotation Yrotation
      JOINT Spine1
      {
        OFFSET 0 26.9735 0
        CHANNELS 6 Xposition Yposition Zposition Zrotation Xrotation Yrotation
        JOINT Neck
        {
          OFFSET 0 26.8627 2.44206
          CHANNELS 6 Xposition Yposition Zposition Zrotation Xrotation Yrotation
          JOINT Head
          {
            OFFSET 0 14.0861 -2.0123
            CHANNELS 6 Xposition Yposition Zposition Zrotation Xrotation Yrotation
            End Site
            {
              OFFSET 0 25.1537 0
            }
          }
        }
        JOINT LeftShoulder
        {
          OFFSET 4.03461 23.8974 -0.31355
          CHANNELS 6 Xposition Yposition Zposition Zrotation Xrotation Yrotation
          JOINT LeftArm
          {
            OFFSET 14.6104 0 0
            CHANNELS 6 Xposition Yposition Zposition Zrotation Xrotation Yrotation
            JOINT LeftForeArm
            {
              OFFSET 28.8903 0 0
              CHANNELS 6 Xposition Yposition Zposition Zrotation Xrotation Yrotation
              JOINT LeftHand
              {
                OFFSET 28.8168 0 0
                CHANNELS 6 Xposition Yposition Zposition Zrotation Xrotation Yrotation
                End Site
                {
                  OFFSET 15.0922 0 0
                }
              }
            }
          }
        }
        JOINT RightShoulder
        {
          OFFSET -4.01401 23.8974 -0.31355
          CHANNELS 6 Xposition Yposition Zposition Zrotation Xrotation Yrotation
          JOINT RightArm
          {
            OFFSET -14.6104 0 0
            CHANNELS 6 Xposition Yposition Zposition Zrotation Xrotation Yrotation
            JOINT RightForeArm
            {
              OFFSET -28.8903 0 0
              CHANNELS 6 Xposition Yposition Zposition Zrotation Xrotation Yrotation
              JOINT RightHand
              {
                OFFSET -28.8168 0 0
                CHANNELS 6 Xposition Yposition Zposition Zrotation Xrotation Yrotation
                End Site
                {
                  OFFSET -15.0922 0 0
                }
              }
            }
          }
        }
      }
    }
    JOINT LeftUpLeg
    {
      OFFSET 10.0615 0 0
      CHANNELS 6 Xposition Yposition Zposition Zrotation Xrotation Yrotation
      JOINT LeftLeg
      {
        OFFSET 0 -36.0896 0
        CHANNELS 6 Xposition Yposition Zposition Zrotation Xrotation Yrotation
        JOINT LeftFoot
        {
          OFFSET 0 -47.1136 0
          CHANNELS 6 Xposition Yposition Zposition Zrotation Xrotation Yrotation
          JOINT LeftToeBase
          {
            OFFSET 0 -6.53997 15.0922
            CHANNELS 6 Xposition Yposition Zposition Zrotation Xrotation Yrotation
            End Site
            {
              OFFSET 0 0 4.0246
            }
          }
        }
      }
    }
    JOINT RightUpLeg
    {
      OFFSET -10.0615 0 0
      CHANNELS 6 Xposition Yposition Zposition Zrotation Xrotation Yrotation
      JOINT RightLeg
      {
        OFFSET 0 -36.0896 0
        CHANNELS 6 Xposition Yposition Zposition Zrotation Xrotation Yrotation
        JOINT RightFoot
        {
          OFFSET 0 -47.1136 0
          CHANNELS 6 Xposition Yposition Zposition Zrotation Xrotation Yrotation
          JOINT RightToeBase
          {
            OFFSET 0 -6.53997 15.0922
            CHANNELS 6 Xposition Yposition Zposition Zrotation Xrotation Yrotation
            End Site
            {
              OFFSET 0 0 4.0246
            }
          }
        }
      }
    }
  }
}
MOTION
Frames:	6
Frame Time:	0.004
0 0 0 0 0 -0 -6.44933 82.9107 -210.716 -0.782586 0.837578 1.38272 0 8.25043 0 0.555939 -5.68603 1.57079 0 26.9735 -2.84217e-014 -1.65894 -4.53568 1.48405 1.77636e-015 26.8627 2.44206 6.94639 21.2365 11.099 0 14.0861 -2.0123 -9.05042 3.45856 10.8853 4.03461 23.8974 -0.31355 19.6477 -2.11067 -1.08646 14.6104 2.84217e-014 0 -24.6169 -8.87793 -0.66315 28.8903 2.84217e-014 2.84217e-014 -2.70815 4.35248 2.31082 28.8168 0 0 24.392 3.92424 -2.2397 -4.01401 23.8974 -0.31355 -15.5665 -1.82657 1.71345 -14.6104 -2.84217e-014 0 21.3624 7.85802 2.5438 -28.8903 2.84217e-014 -2.84217e-014 -8.36182 -6.52651 2.47337 -28.8168 0 0 -10.6646 -4.94766 -14.977 10.0615 0 -2.84217e-014 3.53894 -0.750701 -8.42045 0 -36.0896 2.84217e-014 -4.30738 12.6118 -26.1074 -1.42109e-014 -47.1136 0 13.688 -13.3566 38.8774 3.55271e-015 -6.53997 15.0922 3.97569e-016 -7.95139e-016 -1.59028e-015 -10.0615 0 0 -2.28291 0.492441 7.2607 0 -36.0896 0 4.40761 10.4527 2.87526 3.55271e-015 -47.1136 0 -8.74647 -17.064 -12.8749 0 -6.53997 15.0922 -3.10601e-017 -2.38542e-015 -0 
0 0 0 0 0 -0 -6.44933 82.9107 -210.723 -0.782709 0.837575 1.39112 1.77636e-015 8.25043 0 0.54647 -5.67525 1.57076 8.88178e-016 26.9735 -2.84217e-014 -1.65894 -4.53568 1.48405 1.77636e-015 26.8627 2.44206 6.97931 21.2468 11.0998 0 14.0861 -2.0123 -9.1124 3.43018 10.885 4.03461 23.8974 -0.31355 19.6475 -2.12022 -1.08647 14.6104 0 -2.84217e-014 -24.6155 -8.87831 -0.663151 28.8903 -2.84217e-014 0 -2.71622 4.32678 2.31074 28.8168 0 0 24.3706 3.89167 -2.27452 -4.01401 23.8974 -0.31355 -15.5701 -1.82657 1.71345 -14.6104 -2.84217e-014 0 21.3536 7.81394 2.5462 -28.8903 0 0 -8.35275 -6.50468 2.47327 -28.8168 0 -2.84217e-014 -10.6589 -4.92616 -14.9765 10.0615 -1.42109e-014 0 3.53976 -0.750923 -8.42045 0 -36.0896 2.84217e-014 -4.3099 12.609 -26.0608 0 -47.1136 2.84217e-014 13.6683 -13.3632 38.8364 -3.55271e-015 -6.53997 15.0922 -9.93923e-016 1.59028e-015 -0 -10.0615 0 -2.84217e-014 -2.28264 0.492278 7.23248 -3.55271e-015 -36.0896 2.84217e-014 4.41112 10.4529 2.8559 0 -47.1136 2.84217e-014 -8.7361 -17.0663 -12.8395 -3.55271e-015 -6.53997 15.0922 -2.04375e-015 7.95139e-016 -4.96962e-017 
0 0 0 0 0 -0 -6.44933 82.9107 -210.733 -0.782898 0.83757 1.40409 0 8.25043 -2.84217e-014 0.539475 -5.66824 1.57074 -8.88178e-016 26.9735 2.84217e-014 -1.65868 -4.54578 1.48408 3.55271e-015 26.8627 2.44206 6.94301 21.2533 11.1003 1.42109e-014 14.0861 -2.0123 -9.04446 3.40267 10.8847 4.03461 23.8974 -0.31355 19.6476 -2.11732 -1.08647 14.6104 2.84217e-014 2.84217e-014 -24.6091 -8.86274 -0.673365 28.8903 0 2.84217e-014 -2.70384 4.31406 2.3107 28.8168 0 0 24.3295 3.891 -2.22043 -4.01401 23.8974 -0.31355 -15.5781 -1.82657 1.7133 -14.6104 0 0 21.365 7.84088 2.53356 -28.8903 0 0 -8.36946 -6.51777 2.47333 -28.8168 0 2.84217e-014 -10.6713 -4.93757 -14.9767 10.0615 1.42109e-014 0 3.54511 -0.776078 -8.42648 -3.55271e-015 -36.0896 0 -4.3112 12.6222 -26.0975 1.42109e-014 -47.1136 0 13.6725 -13.3519 38.8621 0 -6.53997 15.0922 2.98177e-016 -7.95139e-016 -7.95139e-016 -10.0615 0 -2.84217e-014 -2.28194 0.479015 7.2179 -3.55271e-015 -36.0896 0 4.41374 10.4572 2.87503 0 -47.1136 0 -8.74221 -17.0657 -12.8486 -3.55271e-015 -6.53997 15.0922 1.47846e-015 7.95139e-016 -9.93923e-017 
0 0 0 0 0 -0 -6.44933 82.9107 -210.737 -0.782595 0.825589 1.40338 8.88178e-016 8.25043 2.84217e-014 0.525722 -5.64759 1.57068 8.88178e-016 26.9735 0 -1.65857 -4.55008 1.48408 0 26.8627 2.44206 6.93696 21.2657 11.1012 -1.42109e-014 14.0861 -2.0123 -9.0358 3.37816 10.8844 4.03461 23.8974 -0.31355 19.6476 -2.11775 -1.08647 14.6104 0 0 -24.5986 -8.84441 -0.676383 28.8903 -5.68434e-014 2.84217e-014 -2.70305 4.28924 2.31142 28.8168 -2.84217e-014 2.84217e-014 24.3406 3.86426 -2.22821 -4.01401 23.8974 -0.31355 -15.5833 -1.81523 1.71225 -14.6104 0 -2.84217e-014 21.3563 7.82307 2.53078 -28.8903 -2.84217e-014 0 -8.37198 -6.51946 2.47334 -28.8168 2.84217e-014 0 -10.6385 -4.94392 -14.9769 10.0615 0 0 3.54072 -0.769065 -8.40222 0 -36.0896 0 -4.30342 12.6302 -26.1003 0 -47.1136 2.84217e-014 13.638 -13.3734 38.8382 0 -6.53997 15.0922 2.98177e-016 7.95139e-016 -0 -10.0615 0 2.84217e-014 -2.26186 0.519777 7.05636 3.55271e-015 -36.0896 0 4.33499 10.4064 2.90866 0 -47.1136 2.84217e-014 -8.67145 -17.0724 -12.7016 -3.55271e-015 -6.53997 15.0922 -1.67103e-015 7.95139e-016 9.93923e-017 
0 0 0 0 0 -0 -6.45262 82.9107 -210.748 -0.783187 0.84287 1.41488 -8.88178e-016 8.25043 0 0.527662 -5.6514 1.57069 0 26.9735 0 -1.66077 -4.55769 1.4841 -3.55271e-015 26.8627 2.44206 6.93391 21.2678 11.1014 0 14.0861 -2.0123 -9.04839 3.3834 10.8845 4.03461 23.8974 -0.31355 19.6495 -2.10655 -1.07736 14.6104 0 0 -24.5935 -8.82421 -0.681776 28.8903 0 0 -2.70039 4.27173 2.28748 28.8168 -2.84217e-014 0 24.3297 3.85134 -2.20492 -4.01401 23.8974 -0.31355 -15.5871 -1.81844 1.71121 -14.6104 0 -2.84217e-014 21.3571 7.8024 2.52824 -28.8903 2.84217e-014 2.84217e-014 -8.37394 -6.50611 2.47327 -28.8168 2.84217e-014 0 -10.6501 -4.92806 -14.986 10.0615 0 0 3.55268 -0.796653 -8.40912 0 -36.0896 0 -4.31632 12.6293 -26.0899 0 -47.1136 0 13.655 -13.3551 38.8314 -3.55271e-015 -6.53997 15.0922 -1.49089e-016 -7.95139e-016 -0 -10.0615 0 -2.84217e-014 -2.28346 0.461033 7.19562 0 -36.0896 -2.84217e-014 4.41958 10.4629 2.86919 0 -47.1136 2.84217e-014 -8.72534 -17.0613 -12.8279 0 -6.53997 15.0922 -3.91357e-016 -7.95139e-016 -1.49089e-016 
0 0 0 0 0 -0 -6.45863 82.9107 -210.755 -0.783122 0.83642 1.42134 0 8.25043 0 0.518989 -5.63542 1.57065 -1.77636e-015 26.9735 0 -1.65918 -4.55863 1.4841 1.77636e-015 26.8627 2.44206 6.93149 21.2677 11.1014 0 14.0861 -2.0123 -9.02899 3.35839 10.884 4.03461 23.8974 -0.31355 19.6576 -2.10843 -1.07736 14.6104 0 0 -24.5889 -8.85077 -0.686095 28.8903 0 -2.84217e-014 -2.70057 4.28611 2.29904 28.8168 0 0 24.3297 3.86046 -2.23075 -4.01401 23.8974 -0.31355 -15.581 -1.8216 1.71014 -14.6104 2.84217e-014 0 21.3394 7.77602 2.52539 -28.8903 0 -2.84217e-014 -8.35948 -6.5 2.47324 -28.8168 0 0 -10.679 -4.92029 -14.9689 10.0615 1.42109e-014 -2.84217e-014 3.5543 -0.795742 -8.40275 0 -36.0896 2.84217e-014 -4.3095 12.6287 -26.1078 0 -47.1136 0 13.6379 -13.3627 38.838 -3.55271e-015 -6.53997 15.0922 8.44835e-016 0 -0 -10.0615 0 0 -2.28044 0.467014 7.18474 3.55271e-015 -36.0896 0 4.41826 10.4567 2.89023 7.10543e-015 -47.1136 -2.84217e-014 -8.74455 -17.0546 -12.85 -3.55271e-015 -6.53997 15.0922 3.60297e-016 0 9.93923e-017 
